<?xml version="1.0" encoding="UTF-8" standalone="no"?>
<svg
   xmlns:dc="http://purl.org/dc/elements/1.1/"
   xmlns:cc="http://creativecommons.org/ns#"
   xmlns:rdf="http://www.w3.org/1999/02/22-rdf-syntax-ns#"
   xmlns:svg="http://www.w3.org/2000/svg"
   xmlns="http://www.w3.org/2000/svg"
   xmlns:sodipodi="http://sodipodi.sourceforge.net/DTD/sodipodi-0.dtd"
   xmlns:inkscape="http://www.inkscape.org/namespaces/inkscape"
   sodipodi:docname="hero.svg"
   inkscape:version="1.0 (4035a4f, 2020-05-01)"
   id="svg8"
   version="1.1"
   viewBox="0 0 51.414993 8.0433073"
   height="8.0433073mm"
   width="51.414993mm">
  <defs
     id="defs2" />
  <sodipodi:namedview
     inkscape:window-maximized="0"
     inkscape:window-y="23"
     inkscape:window-x="0"
     inkscape:window-height="772"
     inkscape:window-width="1440"
     fit-margin-bottom="0"
     fit-margin-right="0"
     fit-margin-left="0"
     fit-margin-top="0"
     showgrid="false"
     inkscape:document-rotation="0"
     inkscape:current-layer="layer1"
     inkscape:document-units="mm"
     inkscape:cy="116.26288"
     inkscape:cx="44.197496"
     inkscape:zoom="1.6895827"
     inkscape:pageshadow="2"
     inkscape:pageopacity="0.0"
     borderopacity="1.0"
     bordercolor="#666666"
     pagecolor="#ffffff"
     id="base" />
  <metadata
     id="metadata5">
    <rdf:RDF>
      <cc:Work
         rdf:about="">
        <dc:format>image/svg+xml</dc:format>
        <dc:type
           rdf:resource="http://purl.org/dc/dcmitype/StillImage" />
        <dc:title></dc:title>
      </cc:Work>
    </rdf:RDF>
  </metadata>
  <g
     id="layer1"
     inkscape:groupmode="layer"
     inkscape:label="レイヤー 1">
    <g
       style="font-size:10.58329999999999949px;line-height:1.25;font-family:'Rounded Mplus 1c';-inkscape-font-specification:'Rounded Mplus 1c';stroke-width:0.264583;fill:#512f3b;fill-opacity:1"
       id="text12"
       aria-label="Idea Maker">
      <path
         id="path14"
         style="stroke-width:0.264583;fill:#512f3b;fill-opacity:1"
         d="m 0.77258093,7.8104751 q -0.12699959,0.1269996 -0.31749899,0.1269996 -0.19049939,0 -0.32808229,-0.1269996 Q 5.7220459e-8,7.6728922 5.7220459e-8,7.4823928 V 0.66674788 q 0,-0.1904994 0.126999592779541,-0.31749899 0.1375829,-0.1375829 0.32808229,-0.1375829 0.1904994,0 0.31749899,0.1375829 0.1375829,0.12699959 0.1375829,0.31749899 V 7.4823928 q 0,0.1904994 -0.1375829,0.3280823 z" />
      <path
         id="path16"
         style="stroke-width:0.264583;fill:#512f3b;fill-opacity:1"
         d="m 4.9996169,2.9633239 q -1.587495,0 -1.587495,2.2224929 0,1.1006632 0.4127487,1.6615781 0.423332,0.5609148 1.1747463,0.5609148 0.6138314,0 1.1006631,-0.4233319 Q 6.5871118,6.5510625 6.5871118,6.0007309 V 4.3709028 q 0,-0.5397483 -0.4868318,-0.9736636 Q 5.6240316,2.9633239 4.9996169,2.9633239 Z M 4.8302841,8.0433077 q -0.9842469,0 -1.6086616,-0.7619975 -0.6138313,-0.7725809 -0.6138313,-2.0954934 0,-1.3652456 0.5926647,-2.1060766 0.6032481,-0.7514143 1.6298282,-0.7514143 1.0371634,0 1.7250778,0.8149141 0.010583,0.010583 0.021167,0.010583 0.010583,0 0.010583,-0.010583 V 0.40216539 q 0,-0.1693328 0.1164163,-0.28574909 Q 6.8305277,0 6.9998605,0 7.1691933,0 7.2856096,0.1164163 7.4020259,0.23283259 7.4020259,0.40216539 V 7.5564759 q 0,0.1587495 -0.1164163,0.2751658 -0.105833,0.105833 -0.2645825,0.105833 -0.1587495,0 -0.2751658,-0.105833 Q 6.629445,7.7152254 6.629445,7.5564759 v -0.391582 q 0,-0.010583 -0.010583,-0.010583 -0.010583,0 -0.021167,0.010583 -0.709081,0.8784138 -1.767411,0.8784138 z" />
      <path
         id="path18"
         style="stroke-width:0.264583;fill:#512f3b;fill-opacity:1"
         d="m 11.107504,2.9421573 q -1.4710786,0 -1.6086615,1.7462444 0,0.084666 0.09525,0.084666 H 12.441 q 0.08467,0 0.08467,-0.084666 -0.0635,-1.7462444 -1.418162,-1.7462444 z m 0.222249,5.1011504 q -1.301746,0 -1.9790767,-0.7090811 -0.6773312,-0.7196643 -0.6773312,-2.1484098 0,-1.4710786 0.6455813,-2.1589931 0.6561646,-0.6984978 1.7885776,-0.6984978 2.08491,0 2.21191,2.4659088 0.01058,0.2539992 -0.179916,0.4339153 -0.179917,0.1693328 -0.433916,0.1693328 H 9.5729256 q -0.084666,0 -0.084666,0.09525 0.09525,1.9367438 1.9155768,1.9367438 0.603248,0 1.238246,-0.2222492 0.116417,-0.042333 0.22225,0.03175 0.105833,0.0635 0.105833,0.1904993 0,0.3598322 -0.328083,0.4444986 -0.677331,0.1693328 -1.312329,0.1693328 z" />
      <path
         id="path20"
         style="stroke-width:0.264583;fill:#512f3b;fill-opacity:1"
         d="m 17.250448,5.0270673 q -1.047747,0 -1.587495,0.3386656 -0.529165,0.3386656 -0.529165,0.952497 0,0.4762485 0.264582,0.7725809 0.275166,0.285749 0.719665,0.285749 0.761997,0 1.259412,-0.5079983 0.507999,-0.5079984 0.507999,-1.3440791 V 5.122317 q 0,-0.09525 -0.09525,-0.09525 z m -1.301746,3.0162404 q -0.719664,0 -1.174746,-0.4550819 -0.455082,-0.4550818 -0.455082,-1.2064961 0,-0.8784139 0.698498,-1.4075789 0.698497,-0.529165 2.233076,-0.529165 h 0.539748 q 0.09525,0 0.09525,-0.084666 V 4.1592368 q 0,-0.6455813 -0.296333,-0.8995805 -0.296332,-0.2645825 -1.047746,-0.2645825 -0.730248,0 -1.576912,0.2751658 -0.126999,0.042333 -0.232832,-0.03175 -0.105833,-0.074083 -0.105833,-0.211666 0,-0.3704155 0.349248,-0.4762485 0.783165,-0.2222493 1.566329,-0.2222493 1.217079,0 1.682744,0.4444986 0.476249,0.4444986 0.476249,1.5980783 v 3.1855731 q 0,0.1587495 -0.116416,0.2751658 -0.105833,0.105833 -0.264583,0.105833 -0.158749,0 -0.275166,-0.105833 -0.116416,-0.1164163 -0.116416,-0.2751658 l -0.01058,-0.5503315 q 0,-0.010583 -0.01058,-0.010583 -0.02117,0 -0.02117,0.021167 -0.624415,1.02658 -1.936744,1.02658 z" />
      <path
         id="path22"
         style="stroke-width:0.264583;fill:#512f3b;fill-opacity:1"
         d="m 23.872783,7.8210584 q -0.116417,0.1164163 -0.28575,0.1164163 -0.169332,0 -0.285749,-0.1164163 Q 23.184868,7.6940588 23.184868,7.524726 V 0.64558128 q 0,-0.1799161 0.116416,-0.30691569 0.127,-0.1269996 0.306916,-0.1269996 0.433915,0 0.645581,0.38099879 l 2.317743,4.26506972 q 0,0.010583 0.02117,0.010583 0.01058,0 0.01058,-0.010583 l 2.317742,-4.25448642 q 0.201083,-0.39158209 0.656165,-0.39158209 0.179916,0 0.306916,0.1375829 0.137583,0.12699959 0.137583,0.30691569 V 7.5141427 q 0,0.1693328 -0.127,0.2963324 -0.116416,0.1269996 -0.296332,0.1269996 -0.179916,0 -0.306916,-0.1269996 Q 29.175016,7.6834755 29.175016,7.5141427 V 1.6404114 q 0,-0.010583 -0.01058,-0.010583 -0.01058,0 -0.01058,0.010583 l -1.979077,3.6512384 q -0.190499,0.3492489 -0.582081,0.3492489 -0.391583,0 -0.582082,-0.3492489 l -1.98966,-3.6512384 q 0,-0.010583 -0.01058,-0.010583 -0.01058,0 -0.01058,0.010583 V 7.524726 q 0,0.1693328 -0.126999,0.2963324 z" />
      <path
         id="path24"
         style="stroke-width:0.264583;fill:#512f3b;fill-opacity:1"
         d="m 34.386299,5.0270673 q -1.047747,0 -1.587495,0.3386656 -0.529165,0.3386656 -0.529165,0.952497 0,0.4762485 0.264582,0.7725809 0.275166,0.285749 0.719665,0.285749 0.761997,0 1.259412,-0.5079983 0.507999,-0.5079984 0.507999,-1.3440791 V 5.122317 q 0,-0.09525 -0.09525,-0.09525 z m -1.301746,3.0162404 q -0.719664,0 -1.174746,-0.4550819 -0.455082,-0.4550818 -0.455082,-1.2064961 0,-0.8784139 0.698498,-1.4075789 0.698497,-0.529165 2.233076,-0.529165 h 0.539748 q 0.09525,0 0.09525,-0.084666 V 4.1592368 q 0,-0.6455813 -0.296333,-0.8995805 -0.296332,-0.2645825 -1.047746,-0.2645825 -0.730248,0 -1.576912,0.2751658 -0.127,0.042333 -0.232833,-0.03175 -0.105833,-0.074083 -0.105833,-0.211666 0,-0.3704155 0.349249,-0.4762485 0.783164,-0.2222493 1.566329,-0.2222493 1.217079,0 1.682744,0.4444986 0.476249,0.4444986 0.476249,1.5980783 v 3.1855731 q 0,0.1587495 -0.116417,0.2751658 -0.105833,0.105833 -0.264582,0.105833 -0.158749,0 -0.275166,-0.105833 Q 35.06363,7.7152254 35.06363,7.5564759 l -0.01058,-0.5503315 q 0,-0.010583 -0.01058,-0.010583 -0.02117,0 -0.02117,0.021167 -0.624415,1.02658 -1.936744,1.02658 z" />
      <path
         id="path26"
         style="stroke-width:0.264583;fill:#512f3b;fill-opacity:1"
         d="m 38.103186,7.8210584 q -0.116417,0.1164163 -0.28575,0.1164163 -0.169332,0 -0.285749,-0.1164163 Q 37.415271,7.7046421 37.415271,7.5353093 V 0.40216539 q 0,-0.1693328 0.116416,-0.28574909 Q 37.648104,0 37.817436,0 q 0.169333,0 0.28575,0.1164163 0.116416,0.11641629 0.116416,0.28574909 V 4.8789011 q 0,0.010583 0.01058,0.010583 l 0.02117,-0.010583 2.285992,-2.1060766 q 0.359833,-0.3386656 0.867831,-0.3386656 0.137583,0 0.179916,0.1269996 0.05292,0.1269996 -0.04233,0.211666 L 39.087432,5.016484 q -0.0635,0.0635 -0.01058,0.1269996 l 2.497659,2.4447422 q 0.08467,0.084666 0.03175,0.2222493 -0.05292,0.1269996 -0.179916,0.1269996 -0.497415,0 -0.846664,-0.3492489 L 38.251352,5.2810665 q -0.01058,-0.010583 -0.02117,-0.010583 -0.01058,0 -0.01058,0.010583 v 2.2542428 q 0,0.1693328 -0.116416,0.2857491 z" />
      <path
         id="path28"
         style="stroke-width:0.264583;fill:#512f3b;fill-opacity:1"
         d="m 44.552384,2.9421573 q -1.471079,0 -1.608662,1.7462444 0,0.084666 0.09525,0.084666 h 2.846907 q 0.08467,0 0.08467,-0.084666 -0.0635,-1.7462444 -1.418162,-1.7462444 z m 0.222249,5.1011504 q -1.301746,0 -1.979077,-0.7090811 -0.677331,-0.7196643 -0.677331,-2.1484098 0,-1.4710786 0.645581,-2.1589931 0.656164,-0.6984978 1.788578,-0.6984978 2.08491,0 2.211909,2.4659088 0.01058,0.2539992 -0.179916,0.4339153 -0.179916,0.1693328 -0.433915,0.1693328 h -3.132657 q -0.08467,0 -0.08467,0.09525 0.09525,1.9367438 1.915577,1.9367438 0.603248,0 1.238246,-0.2222492 0.116416,-0.042333 0.222249,0.03175 0.105833,0.0635 0.105833,0.1904993 0,0.3598322 -0.328082,0.4444986 -0.677331,0.1693328 -1.312329,0.1693328 z" />
      <path
         id="path30"
         style="stroke-width:0.264583;fill:#512f3b;fill-opacity:1"
         d="m 48.748,7.8104751 q -0.116416,0.1269996 -0.296332,0.1269996 -0.179916,0 -0.306916,-0.1269996 Q 48.028336,7.6834755 48.028336,7.5141427 V 2.8363243 q 0,-0.1693328 0.116416,-0.2857491 0.116416,-0.1164163 0.285749,-0.1164163 0.169333,0 0.285749,0.1164163 0.116417,0.1164163 0.116417,0.2857491 v 0.8149141 q 0,0.010583 0.01058,0.010583 0.02117,0 0.02117,-0.021167 0.317499,-0.529165 0.888997,-0.846664 0.582081,-0.3280823 1.301746,-0.3598322 0.148166,-0.010583 0.253999,0.09525 0.105833,0.105833 0.105833,0.2539992 0,0.1375829 -0.105833,0.2434159 -0.09525,0.105833 -0.243416,0.1164163 -1.047747,0.042333 -1.619245,0.6138314 Q 48.875,4.3179863 48.875,5.333983 v 2.1801597 q 0,0.1693328 -0.127,0.2963324 z" />
    </g>
  </g>
</svg>
