<?xml version="1.0" encoding="UTF-8" standalone="no"?>
<svg
   id="svg8"
   version="1.1"
   viewBox="0 0 53.116062 4.8259997"
   height="4.8259997mm"
   width="53.116062mm"
   xmlns="http://www.w3.org/2000/svg"
   xmlns:svg="http://www.w3.org/2000/svg"
   xmlns:rdf="http://www.w3.org/1999/02/22-rdf-syntax-ns#"
   xmlns:cc="http://creativecommons.org/ns#"
   xmlns:dc="http://purl.org/dc/elements/1.1/">
  <defs
     id="defs2" />
  <metadata
     id="metadata5">
    <rdf:RDF>
      <cc:Work
         rdf:about="">
        <dc:format>image/svg+xml</dc:format>
        <dc:type
           rdf:resource="http://purl.org/dc/dcmitype/StillImage" />
      </cc:Work>
    </rdf:RDF>
  </metadata>
  <g
     id="layer1"
     transform="translate(0.85053457,-1.6086539)">
    <g
       aria-label="Word Combination"
       id="text471"
       style="font-size:6.35px;line-height:1.25;font-family:'Rounded Mplus 1c';-inkscape-font-specification:'Rounded Mplus 1c';fill:#512f3b;stroke-width:0.264583">
      <path
         d="M 0.04322792,6.0600038 -0.84577207,1.9896539 q -0.01905,-0.1016 0.0381,-0.1778 0.0635,-0.0762 0.1651,-0.0762 0.1143,0 0.19685,0.0762 0.0889,0.06985 0.1143,0.1778 l 0.75564998,3.8290499 q 0,0.00635 0.00635,0.00635 0.00635,0 0.00635,-0.00635 L 1.2179779,2.0595039 q 0.0254,-0.1397 0.13335,-0.2286 0.1143,-0.09525 0.254,-0.09525 0.14605,0 0.26035,0.09525 0.1143,0.0889 0.14605,0.2286 l 0.78105,3.7591999 q 0,0.00635 0.00635,0.00635 0.00635,0 0.00635,-0.00635 l 0.75565,-3.8353999 q 0.01905,-0.10795 0.1016,-0.1778 0.08255,-0.06985 0.19685,-0.06985 0.09525,0 0.15875,0.0762 0.0635,0.0762 0.04445,0.17145 l -0.89535,4.0766999 q -0.03175,0.1397 -0.1397,0.2286 -0.10795,0.08255 -0.24765,0.08255 -0.1397,0 -0.254,-0.08255 -0.10795,-0.0889 -0.13335,-0.2286 l -0.78105,-3.7718999 q 0,-0.00635 -0.00635,-0.00635 -0.00635,0 -0.00635,0.00635 L 0.81792791,6.0600038 q -0.03175,0.1397 -0.1397,0.2286 -0.10795,0.08255 -0.24765,0.08255 -0.13969999,0 -0.25399999,-0.08255 -0.10795,-0.0889 -0.13335,-0.2286 z"
         id="path1253" />
      <path
         d="m 6.7996103,4.7201539 q 0,-1.3335 -1.016,-1.3335 -1.016,0 -1.016,1.3335 0,1.3334999 1.016,1.3334999 1.016,0 1.016,-1.3334999 z m 0.09525,1.2636499 q -0.40005,0.45085 -1.11125,0.45085 -0.7112,0 -1.11125,-0.45085 -0.40005,-0.45085 -0.40005,-1.2636499 0,-0.8128 0.40005,-1.26365 0.40005,-0.45085 1.11125,-0.45085 0.7112,0 1.11125,0.45085 0.40005,0.45085 0.40005,1.26365 0,0.8127999 -0.40005,1.2636499 z"
         id="path1255" />
      <path
         d="m 8.4569589,6.2949538 q -0.06985,0.0762 -0.1778,0.0762 -0.10795,0 -0.18415,-0.0762 -0.06985,-0.0762 -0.06985,-0.1778 V 3.3104539 q 0,-0.1016 0.06985,-0.17145 0.06985,-0.06985 0.17145,-0.06985 0.1016,0 0.17145,0.06985 0.06985,0.06985 0.06985,0.17145 v 0.48895 q 0,0.00635 0.00635,0.00635 0.0127,0 0.0127,-0.0127 0.1905,-0.3175 0.5334,-0.508 0.34925,-0.19685 0.78105,-0.2159 0.0889,-0.00635 0.1524,0.05715 0.0635,0.0635 0.0635,0.1524 0,0.08255 -0.0635,0.14605 -0.05715,0.0635 -0.14605,0.06985 -0.62865,0.0254 -0.97155,0.3683 -0.3429,0.33655 -0.3429,0.94615 v 1.3080999 q 0,0.1016 -0.0762,0.1778 z"
         id="path1257" />
      <path
         d="m 12.000249,3.3866539 q -0.9525,0 -0.9525,1.3335 0,0.6603999 0.24765,0.9969499 0.254,0.33655 0.70485,0.33655 0.3683,0 0.6604,-0.254 0.2921,-0.26035 0.2921,-0.59055 V 4.2312039 q 0,-0.32385 -0.2921,-0.5842 -0.28575,-0.26035 -0.6604,-0.26035 z m -0.1016,3.0479999 q -0.59055,0 -0.9652,-0.4572 -0.3683,-0.46355 -0.3683,-1.2572999 0,-0.81915 0.3556,-1.26365 0.36195,-0.45085 0.9779,-0.45085 0.6223,0 1.03505,0.48895 0.0063,0.00635 0.0127,0.00635 0.0064,0 0.0064,-0.00635 v -1.64465 q 0,-0.1016 0.06985,-0.17145 0.0762,-0.06985 0.1778,-0.06985 0.1016,0 0.17145,0.06985 0.06985,0.06985 0.06985,0.17145 v 4.2925999 q 0,0.09525 -0.06985,0.1651 -0.0635,0.0635 -0.15875,0.0635 -0.09525,0 -0.1651,-0.0635 -0.06985,-0.06985 -0.06985,-0.1651 v -0.23495 q 0,-0.00635 -0.0063,-0.00635 -0.0064,0 -0.0127,0.00635 -0.42545,0.52705 -1.06045,0.52705 z"
         id="path1259" />
      <path
         d="m 17.937484,6.4346538 q -0.9144,0 -1.46685,-0.6223 -0.55245,-0.62865 -0.55245,-1.7589499 0,-1.12395 0.52705,-1.7526 0.5334,-0.62865 1.4732,-0.62865 0.4953,0 0.88265,0.09525 0.09525,0.0254 0.1524,0.10795 0.0635,0.08255 0.0635,0.18415 0,0.08255 -0.06985,0.13335 -0.0635,0.04445 -0.14605,0.01905 -0.37465,-0.1143 -0.8382,-0.1143 -0.71755,0 -1.12395,0.51435 -0.4064,0.51435 -0.4064,1.44145 0,0.92075 0.4191,1.4414499 0.42545,0.51435 1.1303,0.51435 0.4699,0 0.8509,-0.1143 0.08255,-0.0254 0.14605,0.0254 0.06985,0.04445 0.06985,0.127 0,0.1016 -0.0635,0.18415 -0.05715,0.0762 -0.1524,0.1016 -0.42545,0.1016 -0.89535,0.1016 z"
         id="path1261" />
      <path
         d="m 22.274525,4.7201539 q 0,-1.3335 -1.016,-1.3335 -1.016,0 -1.016,1.3335 0,1.3334999 1.016,1.3334999 1.016,0 1.016,-1.3334999 z m 0.09525,1.2636499 q -0.40005,0.45085 -1.11125,0.45085 -0.7112,0 -1.11125,-0.45085 -0.40005,-0.45085 -0.40005,-1.2636499 0,-0.8128 0.40005,-1.26365 0.40005,-0.45085 1.11125,-0.45085 0.7112,0 1.11125,0.45085 0.40005,0.45085 0.40005,1.26365 0,0.8127999 -0.40005,1.2636499 z"
         id="path1263" />
      <path
         d="m 23.919174,6.3013038 q -0.06985,0.06985 -0.17145,0.06985 -0.1016,0 -0.1778,-0.06985 -0.06985,-0.06985 -0.06985,-0.17145 V 3.3041039 q 0,-0.09525 0.06985,-0.1651 0.06985,-0.06985 0.1651,-0.06985 0.09525,0 0.1651,0.06985 0.06985,0.06985 0.06985,0.1651 l 0.0064,0.20955 q 0,0.00635 0.0063,0.00635 0.0127,0 0.0127,-0.0127 0.36195,-0.50165 0.8636,-0.50165 0.3048,0 0.48895,0.13335 0.1905,0.13335 0.31115,0.4445 0,0.0127 0.0064,0.0127 0.0127,0 0.0127,-0.0127 0.3556,-0.57785 0.9271,-0.57785 0.508,0 0.73025,0.2921 0.2286,0.2921 0.2286,0.9779 v 1.8541999 q 0,0.1016 -0.06985,0.17145 -0.0635,0.06985 -0.1651,0.06985 -0.1016,0 -0.17145,-0.06985 -0.06985,-0.06985 -0.06985,-0.17145 V 4.4026539 q 0,-0.59055 -0.1397,-0.8001 -0.13335,-0.2159 -0.47625,-0.2159 -0.23495,0 -0.46355,0.254 -0.2286,0.24765 -0.2286,0.51435 v 1.9748499 q 0,0.1016 -0.06985,0.17145 -0.06985,0.06985 -0.17145,0.06985 -0.1016,0 -0.17145,-0.06985 -0.06985,-0.06985 -0.06985,-0.17145 V 4.4026539 q 0,-0.59055 -0.1397,-0.8001 -0.13335,-0.2159 -0.4699,-0.2159 -0.23495,0 -0.4699,0.254 -0.2286,0.24765 -0.2286,0.51435 v 1.9748499 q 0,0.1016 -0.06985,0.17145 z"
         id="path1265" />
      <path
         d="m 29.005523,4.2312039 v 0.9778999 q 0,0.3302 0.2921,0.59055 0.2921,0.254 0.6604,0.254 0.45085,0 0.6985,-0.33655 0.254,-0.33655 0.254,-0.9969499 0,-1.3335 -0.9525,-1.3335 -0.37465,0 -0.66675,0.26035 -0.28575,0.26035 -0.28575,0.5842 z m -0.09525,2.0764499 q -0.06985,0.0635 -0.1651,0.0635 -0.09525,0 -0.1651,-0.0635 -0.0635,-0.06985 -0.0635,-0.1651 V 1.8499539 q 0,-0.1016 0.06985,-0.17145 0.06985,-0.06985 0.17145,-0.06985 0.1016,0 0.17145,0.06985 0.0762,0.06985 0.0762,0.17145 v 1.64465 q 0,0.00635 0.0064,0.00635 0.0063,0 0.0127,-0.00635 0.41275,-0.48895 1.03505,-0.48895 0.61595,0 0.97155,0.45085 0.36195,0.4445 0.36195,1.26365 0,0.7937499 -0.37465,1.2572999 -0.3683,0.4572 -0.95885,0.4572 -0.635,0 -1.06045,-0.52705 -0.0063,-0.00635 -0.0127,-0.00635 -0.0064,0 -0.0064,0.00635 v 0.23495 q 0,0.09525 -0.06985,0.1651 z"
         id="path1267" />
      <path
         d="m 32.840915,6.2949538 q -0.06985,0.0762 -0.1778,0.0762 -0.10795,0 -0.18415,-0.0762 -0.06985,-0.0762 -0.06985,-0.1778 V 3.3231539 q 0,-0.1016 0.06985,-0.1778 0.0762,-0.0762 0.18415,-0.0762 0.10795,0 0.1778,0.0762 0.0762,0.0762 0.0762,0.1778 v 2.7939999 q 0,0.1016 -0.0762,0.1778 z m 0,-4.0766999 q -0.06985,0.06985 -0.1778,0.06985 -0.10795,0 -0.18415,-0.06985 -0.06985,-0.0762 -0.06985,-0.18415 v -0.17145 q 0,-0.1016 0.06985,-0.1778 0.0762,-0.0762 0.18415,-0.0762 0.10795,0 0.1778,0.0762 0.0762,0.0762 0.0762,0.1778 v 0.17145 q 0,0.10795 -0.0762,0.18415 z"
         id="path1269" />
      <path
         d="m 34.536363,6.3013038 q -0.06985,0.06985 -0.17145,0.06985 -0.1016,0 -0.17145,-0.06985 -0.06985,-0.06985 -0.06985,-0.17145 V 3.2977539 q 0,-0.09525 0.0635,-0.15875 0.06985,-0.06985 0.1651,-0.06985 0.09525,0 0.1651,0.06985 0.06985,0.0635 0.06985,0.15875 v 0.26035 q 0,0.00635 0.0064,0.00635 0.0063,0 0.0127,-0.00635 0.4572,-0.55245 1.08585,-0.55245 0.57785,0 0.8382,0.32385 0.26035,0.32385 0.26035,1.07315 v 1.7271999 q 0,0.1016 -0.06985,0.17145 -0.0635,0.06985 -0.1651,0.06985 -0.1016,0 -0.17145,-0.06985 -0.06985,-0.06985 -0.06985,-0.17145 V 4.4661539 q 0,-0.62865 -0.17145,-0.8509 -0.17145,-0.2286 -0.57785,-0.2286 -0.3302,0 -0.64135,0.31115 -0.31115,0.3048 -0.31115,0.62865 v 1.8033999 q 0,0.1016 -0.0762,0.17145 z"
         id="path1271" />
      <path
         d="m 39.311555,4.6249039 q -0.62865,0 -0.9525,0.2032 -0.3175,0.2032 -0.3175,0.5714999 0,0.28575 0.15875,0.46355 0.1651,0.17145 0.4318,0.17145 0.4572,0 0.75565,-0.3048 0.3048,-0.3048 0.3048,-0.8064499 v -0.2413 q 0,-0.05715 -0.05715,-0.05715 z m -0.78105,1.8097499 q -0.4318,0 -0.70485,-0.27305 -0.27305,-0.27305 -0.27305,-0.7239 0,-0.5270499 0.4191,-0.8445499 0.4191,-0.3175 1.33985,-0.3175 h 0.32385 q 0.05715,0 0.05715,-0.0508 v -0.12065 q 0,-0.38735 -0.1778,-0.53975 -0.1778,-0.15875 -0.62865,-0.15875 -0.43815,0 -0.94615,0.1651 -0.0762,0.0254 -0.1397,-0.01905 -0.0635,-0.04445 -0.0635,-0.127 0,-0.22225 0.20955,-0.28575 0.4699,-0.13335 0.9398,-0.13335 0.73025,0 1.00965,0.2667 0.28575,0.2667 0.28575,0.95885 v 1.9113499 q 0,0.09525 -0.06985,0.1651 -0.0635,0.0635 -0.15875,0.0635 -0.09525,0 -0.1651,-0.0635 -0.06985,-0.06985 -0.06985,-0.1651 l -0.0064,-0.3302 q 0,-0.00635 -0.0063,-0.00635 -0.0127,0 -0.0127,0.0127 -0.37465,0.61595 -1.16205,0.61595 z"
         id="path1273" />
      <path
         d="m 40.943491,3.5771539 q -0.08255,0 -0.1397,-0.0508 -0.0508,-0.05715 -0.0508,-0.1397 0,-0.08255 0.0508,-0.13335 0.05715,-0.05715 0.1397,-0.05715 h 0.46355 q 0.05715,0 0.05715,-0.05715 v -0.90805 q 0,-0.1016 0.06985,-0.17145 0.06985,-0.06985 0.17145,-0.06985 0.1016,0 0.17145,0.06985 0.06985,0.06985 0.06985,0.17145 v 0.90805 q 0,0.05715 0.05715,0.05715 h 0.9525 q 0.08255,0 0.13335,0.05715 0.05715,0.0508 0.05715,0.13335 0,0.08255 -0.05715,0.1397 -0.0508,0.0508 -0.13335,0.0508 h -0.9525 q -0.05715,0 -0.05715,0.05715 v 1.6763999 q 0,0.4572 0.12065,0.60325 0.12065,0.1397 0.46355,0.1397 0.2032,0 0.33655,-0.03175 0.06985,-0.0127 0.127,0.03175 0.0635,0.0381 0.0635,0.10795 0,0.0889 -0.05715,0.15875 -0.0508,0.06985 -0.13335,0.08255 -0.1651,0.03175 -0.4191,0.03175 -0.5588,0 -0.7747,-0.2286 -0.20955,-0.23495 -0.20955,-0.8509 V 3.6343039 q 0,-0.05715 -0.05715,-0.05715 z"
         id="path1275" />
      <path
         d="m 44.785232,6.2949538 q -0.06985,0.0762 -0.1778,0.0762 -0.10795,0 -0.18415,-0.0762 -0.06985,-0.0762 -0.06985,-0.1778 V 3.3231539 q 0,-0.1016 0.06985,-0.1778 0.0762,-0.0762 0.18415,-0.0762 0.10795,0 0.1778,0.0762 0.0762,0.0762 0.0762,0.1778 v 2.7939999 q 0,0.1016 -0.0762,0.1778 z m 0,-4.0766999 q -0.06985,0.06985 -0.1778,0.06985 -0.10795,0 -0.18415,-0.06985 -0.06985,-0.0762 -0.06985,-0.18415 v -0.17145 q 0,-0.1016 0.06985,-0.1778 0.0762,-0.0762 0.18415,-0.0762 0.10795,0 0.1778,0.0762 0.0762,0.0762 0.0762,0.1778 v 0.17145 q 0,0.10795 -0.0762,0.18415 z"
         id="path1277" />
      <path
         d="m 48.37298,4.7201539 q 0,-1.3335 -1.016,-1.3335 -1.016,0 -1.016,1.3335 0,1.3334999 1.016,1.3334999 1.016,0 1.016,-1.3334999 z m 0.09525,1.2636499 q -0.40005,0.45085 -1.11125,0.45085 -0.7112,0 -1.11125,-0.45085 -0.40005,-0.45085 -0.40005,-1.2636499 0,-0.8128 0.40005,-1.26365 0.40005,-0.45085 1.11125,-0.45085 0.7112,0 1.11125,0.45085 0.40005,0.45085 0.40005,1.26365 0,0.8127999 -0.40005,1.2636499 z"
         id="path1279" />
      <path
         d="m 50.011278,6.3013038 q -0.06985,0.06985 -0.17145,0.06985 -0.1016,0 -0.17145,-0.06985 -0.06985,-0.06985 -0.06985,-0.17145 V 3.2977539 q 0,-0.09525 0.0635,-0.15875 0.06985,-0.06985 0.1651,-0.06985 0.09525,0 0.1651,0.06985 0.06985,0.0635 0.06985,0.15875 v 0.26035 q 0,0.00635 0.0063,0.00635 0.0064,0 0.0127,-0.00635 0.4572,-0.55245 1.08585,-0.55245 0.57785,0 0.8382,0.32385 0.26035,0.32385 0.26035,1.07315 v 1.7271999 q 0,0.1016 -0.06985,0.17145 -0.0635,0.06985 -0.1651,0.06985 -0.1016,0 -0.17145,-0.06985 -0.06985,-0.06985 -0.06985,-0.17145 V 4.4661539 q 0,-0.62865 -0.17145,-0.8509 -0.17145,-0.2286 -0.57785,-0.2286 -0.3302,0 -0.64135,0.31115 -0.31115,0.3048 -0.31115,0.62865 v 1.8033999 q 0,0.1016 -0.0762,0.17145 z"
         id="path1281" />
    </g>
  </g>
</svg>
